<svg width="94" height="62" viewBox="0 0 94 62" fill="none" xmlns="http://www.w3.org/2000/svg">
<path d="M24.3708 41.7061L30.4148 40.7716L30.1072 26.2622L34.307 25.246L33.9205 20.2834L18.2296 21.9055L18.6895 27.9669L22.9048 26.9571L24.3708 41.7061Z" fill="white"/>
<path d="M90.0692 12.7102L79.2509 17.5727L82.5216 19.461L78.299 27.5621L72.5396 11.3112L76.2831 9.87185L65.3546 2.73096L62.0298 15.3549L66.2396 13.7356L74.1644 31.2092L73.9625 41.7016H80.8225L80.895 31.4552L88.1662 22.7198L91.2671 24.5107L90.0692 12.7102Z" fill="white"/>
<path d="M30.7774 43.0078L19.5213 44.5298L20.0473 49.4217L23.1032 48.8461L24.3884 58.6409L28.7166 57.8321L28.1961 47.9355L31.2575 47.4012L30.7774 43.0078Z" fill="white"/>
<path d="M31.9643 44.6895L33.8287 58.6969L38.1569 57.8891L37.4216 43.6697L31.9643 44.6895Z" fill="white"/>
<path d="M46.9988 50.7665L44.8728 43.8679L39.5164 44.0763L39.308 58.4774L44.1228 58.3315L44.1439 51.5789L45.7898 57.3933H47.6239L49.7702 50.8913L49.7289 58.9566L54.4812 58.7482L55.4396 43.4512H49.8335L46.9988 50.7665Z" fill="white"/>
<path d="M55.5635 57.8385L64.4798 58.94C64.6248 58.1952 64.7748 57.4535 64.9296 56.7149C65.0844 55.9762 65.2374 55.2317 65.3886 54.4814L63.5738 54.2143L61.0172 53.837L61.3422 52.3472L64.4504 52.7006L65.1481 49.5382L62.0756 49.0847L62.3703 47.7995L66.7766 48.2172C66.9271 47.5795 67.066 46.9467 67.1933 46.3188C67.3206 45.6909 67.4528 45.0575 67.5899 44.4186L58.0843 43.0215L55.5635 57.8385Z" fill="white"/>
<path d="M17.9442 31.997C17.675 31.4061 17.2868 30.8771 16.8041 30.4429C16.3168 30.0152 15.7487 29.6896 15.1333 29.4854C14.4493 29.2609 13.7301 29.1632 13.011 29.1972C12.8131 29.1959 12.6153 29.2079 12.4189 29.233C12.1796 29.2611 11.9201 29.2865 11.6405 29.3092C11.3651 29.3312 11.0796 29.3422 10.7932 29.3404C10.5273 29.3411 10.262 29.3159 10.001 29.2651C9.7839 29.2263 9.57745 29.1422 9.39511 29.0182C9.24877 28.9071 9.14857 28.7459 9.11367 28.5655C9.07878 28.3851 9.11166 28.1982 9.20601 28.0405C9.30406 27.8897 9.43611 27.7639 9.59155 27.6734C9.77216 27.5683 9.96399 27.484 10.1634 27.4218C10.3745 27.3535 10.589 27.2962 10.806 27.2502C11.0196 27.2049 11.2249 27.1703 11.422 27.1464C11.6175 27.1226 11.7782 27.1042 11.9039 27.0923C12.6083 27.0264 13.3177 27.0328 14.0208 27.1116C14.7311 27.1872 15.4361 27.3059 16.1321 27.4668L16.1082 21.5725C15.6564 21.4096 15.1919 21.2847 14.7193 21.1989C14.2298 21.1093 13.7358 21.0455 13.2396 21.008C12.7378 20.9702 12.2344 20.9586 11.7313 20.9731C11.2283 20.9878 10.7418 21.0184 10.2718 21.0649C9.228 21.1626 8.20755 21.4322 7.25165 21.8626C6.32563 22.274 5.48256 22.8511 4.76394 23.5654C4.06223 24.2673 3.51504 25.1081 3.1575 26.0339C2.79031 26.9757 2.66118 28.0133 2.77011 29.1467C2.83829 29.9315 3.05052 30.697 3.39617 31.4049C3.71374 32.0592 4.15842 32.6437 4.70428 33.1243C5.24585 33.5945 5.8796 33.9466 6.565 34.1579C7.30771 34.3833 8.08842 34.4558 8.85993 34.3709L9.31892 34.3259C9.51077 34.3066 9.71823 34.2965 9.9413 34.2938C10.1644 34.291 10.392 34.3011 10.627 34.3222C10.8455 34.3389 11.0612 34.3815 11.2696 34.4489C11.4464 34.5059 11.6091 34.5998 11.747 34.7243C11.8741 34.8419 11.9521 35.0032 11.9654 35.1759C11.984 35.2899 11.9772 35.4067 11.9454 35.5177C11.9137 35.6288 11.8578 35.7315 11.7818 35.8185C11.6231 35.9853 11.4302 36.1159 11.2164 36.2013C10.9805 36.2977 10.734 36.3655 10.482 36.4033C10.2243 36.443 10.0043 36.4715 9.82196 36.4886C8.83227 36.5814 7.83484 36.549 6.85325 36.3922C5.87563 36.247 4.92441 35.96 4.02957 35.5404L3.97265 41.5366C4.4041 41.6877 4.89705 41.8456 5.4515 42.0102C6.00596 42.1748 6.58 42.3226 7.17362 42.4536C7.76846 42.5846 8.3526 42.6852 8.92602 42.7556C9.44548 42.8246 9.97089 42.8369 10.493 42.7923C11.6525 42.6873 12.7897 42.4088 13.8665 41.9662C14.8515 41.5658 15.7475 40.9746 16.503 40.2266C17.2406 39.4825 17.7994 38.5803 18.1369 37.5884C18.498 36.5602 18.6143 35.3883 18.4858 34.0725C18.4247 33.3549 18.2415 32.653 17.9442 31.997Z" fill="white"/>
<path d="M43.0525 41.1811C44.7359 41.1929 46.3883 40.7279 47.8186 39.8399C48.4968 39.4161 49.1144 38.9022 49.6545 38.3124C50.1995 37.7206 50.6669 37.0617 51.0452 36.3516C51.4308 35.6258 51.725 34.8549 51.921 34.0567C52.1256 33.2256 52.2277 32.3726 52.2248 31.5167C52.2248 30.1091 52.0005 28.8335 51.552 27.6897C51.1392 26.5885 50.4917 25.5902 49.6546 24.7642C48.8175 23.9382 47.8108 23.3042 46.7042 22.9061C45.5512 22.4716 44.2752 22.2547 42.8762 22.2553C42.0365 22.2503 41.2009 22.3723 40.3977 22.617C39.6284 22.8513 38.8953 23.1911 38.2194 23.6267C37.5488 24.061 36.9383 24.5817 36.4036 25.1753C35.8641 25.7724 35.3998 26.4334 35.0211 27.1435C34.2454 28.6054 33.8403 30.2353 33.8415 31.8903C33.838 32.7274 33.9476 33.5611 34.1674 34.3688C34.3776 35.1444 34.6838 35.8907 35.079 36.5903C35.4674 37.2769 35.9442 37.9096 36.4972 38.4721C37.0498 39.0352 37.6753 39.5218 38.357 39.9189C39.0484 40.3231 39.7889 40.6368 40.5602 40.8524C41.3717 41.0769 42.2105 41.1875 43.0525 41.1811ZM40.126 31.7453C40.124 31.3336 40.1926 30.9247 40.3288 30.5363C40.4566 30.1681 40.6556 29.8288 40.9145 29.5375C41.1713 29.2529 41.4837 29.0239 41.8325 28.8647C42.2164 28.6949 42.6328 28.611 43.0525 28.6186C43.4633 28.6108 43.8694 28.7081 44.2321 28.9014C44.5676 29.0828 44.861 29.3331 45.0931 29.6358C45.3306 29.9499 45.5099 30.304 45.6228 30.6813C45.7446 31.0724 45.8065 31.4797 45.8064 31.8894C45.8076 32.3078 45.7394 32.7234 45.6044 33.1195C45.4766 33.5014 45.2803 33.857 45.0252 34.1687C44.7743 34.4728 44.4614 34.7198 44.1072 34.893C43.7232 35.0761 43.3016 35.1669 42.8762 35.1583C42.4582 35.1676 42.0455 35.0625 41.6829 34.8544C41.342 34.654 41.0484 34.3826 40.8218 34.0585C40.5873 33.7233 40.411 33.3509 40.3004 32.957C40.1862 32.5632 40.1274 32.1553 40.126 31.7453Z" fill="white"/>
<path d="M68.4601 32.2512C68.8466 31.7939 69.1628 31.2815 69.3983 30.731C69.6295 30.1758 69.7782 29.5897 69.8398 28.9915C69.9074 28.3072 69.9031 27.6177 69.827 26.9343C69.7046 25.7342 69.3603 24.7073 68.7943 23.8536C68.2463 23.0172 67.5219 22.311 66.6719 21.7845C65.7962 21.25 64.8293 20.8822 63.8198 20.6994C62.758 20.5006 61.673 20.4564 60.5986 20.5682C59.8881 20.641 59.1963 20.7282 58.5231 20.8298C57.8499 20.9314 57.1893 21.0617 56.5412 21.2208C55.8886 21.3798 55.2451 21.5737 54.6134 21.8019C53.9562 22.0397 53.3126 22.3137 52.6857 22.6226C52.7396 23.7321 52.8121 24.8303 52.9033 25.9172C52.9944 27.0041 53.0862 28.1001 53.1786 29.2054C53.3433 31.3993 53.5152 33.5835 53.6945 35.7578C53.8739 37.9322 54.0495 40.1158 54.2215 42.3085L60.4123 41.676L60.0634 35.6605L61.8434 35.4209L64.6836 41.3299L71.0341 39.4022L66.9868 33.6456C67.5256 33.2339 68.0194 32.7665 68.4601 32.2512ZM63.2277 29.321C63.05 29.6837 62.7942 30.0025 62.4786 30.2546C62.1481 30.5173 61.7757 30.7224 61.377 30.8614C60.9736 31.0076 60.5537 31.1038 60.1268 31.1478L59.7816 31.1827L59.4686 25.8034C59.6385 25.7374 59.8127 25.6831 59.99 25.6409C60.1738 25.5981 60.3603 25.5674 60.5481 25.5491C60.9341 25.5005 61.3259 25.5317 61.6993 25.6409C62.0207 25.7389 62.3162 25.9077 62.564 26.1347C62.8107 26.3664 63.0075 26.646 63.1423 26.9563C63.2911 27.3034 63.384 27.6717 63.4177 28.0478C63.4755 28.482 63.4083 28.9237 63.224 29.321H63.2277Z" fill="white"/>
<path d="M24.3708 41.7061L30.4148 40.7716L30.1072 26.2622L34.307 25.246L33.9205 20.2834L18.2296 21.9055L18.6895 27.9669L22.9048 26.9571L24.3708 41.7061Z" fill="white"/>
<path d="M90.0692 12.7102L79.2509 17.5727L82.5216 19.461L78.299 27.5621L72.5396 11.3112L76.2831 9.87185L65.3546 2.73096L62.0298 15.3549L66.2396 13.7356L74.1644 31.2092L73.9625 41.7016H80.8225L80.895 31.4552L88.1662 22.7198L91.2671 24.5107L90.0692 12.7102Z" fill="white"/>
<path d="M30.7774 43.0078L19.5213 44.5298L20.0473 49.4217L23.1032 48.8461L24.3884 58.6409L28.7166 57.8321L28.1961 47.9355L31.2575 47.4012L30.7774 43.0078Z" fill="white"/>
<path d="M31.9643 44.6895L33.8287 58.6969L38.1569 57.8891L37.4216 43.6697L31.9643 44.6895Z" fill="white"/>
<path d="M46.9988 50.7665L44.8728 43.8679L39.5164 44.0763L39.308 58.4774L44.1228 58.3315L44.1439 51.5789L45.7898 57.3933H47.6239L49.7702 50.8913L49.7289 58.9566L54.4812 58.7482L55.4396 43.4512H49.8335L46.9988 50.7665Z" fill="white"/>
<path d="M55.5635 57.8385L64.4798 58.94C64.6248 58.1952 64.7748 57.4535 64.9296 56.7149C65.0844 55.9762 65.2374 55.2317 65.3886 54.4814L63.5738 54.2143L61.0172 53.837L61.3422 52.3472L64.4504 52.7006L65.1481 49.5382L62.0756 49.0847L62.3703 47.7995L66.7766 48.2172C66.9271 47.5795 67.066 46.9467 67.1933 46.3188C67.3206 45.6909 67.4528 45.0575 67.5899 44.4186L58.0843 43.0215L55.5635 57.8385Z" fill="white"/>
<path d="M17.9442 31.997C17.675 31.4061 17.2868 30.8771 16.8041 30.4429C16.3168 30.0152 15.7487 29.6896 15.1333 29.4854C14.4493 29.2609 13.7301 29.1632 13.011 29.1972C12.8131 29.1959 12.6153 29.2079 12.4189 29.233C12.1796 29.2611 11.9201 29.2865 11.6405 29.3092C11.3651 29.3312 11.0796 29.3422 10.7932 29.3404C10.5273 29.3411 10.262 29.3159 10.001 29.2651C9.7839 29.2263 9.57745 29.1422 9.39511 29.0182C9.24877 28.9071 9.14857 28.7459 9.11367 28.5655C9.07878 28.3851 9.11166 28.1982 9.20601 28.0405C9.30406 27.8897 9.43611 27.7639 9.59155 27.6734C9.77216 27.5683 9.96399 27.484 10.1634 27.4218C10.3745 27.3535 10.589 27.2962 10.806 27.2502C11.0196 27.2049 11.2249 27.1703 11.422 27.1464C11.6175 27.1226 11.7782 27.1042 11.9039 27.0923C12.6083 27.0264 13.3177 27.0328 14.0208 27.1116C14.7311 27.1872 15.4361 27.3059 16.1321 27.4668L16.1082 21.5725C15.6564 21.4096 15.1919 21.2847 14.7193 21.1989C14.2298 21.1093 13.7358 21.0455 13.2396 21.008C12.7378 20.9702 12.2344 20.9586 11.7313 20.9731C11.2283 20.9878 10.7418 21.0184 10.2718 21.0649C9.228 21.1626 8.20755 21.4322 7.25165 21.8626C6.32581 22.2743 5.4828 22.8513 4.76394 23.5654C4.06249 24.2675 3.51533 25.1082 3.1575 26.0339C2.79031 26.9757 2.66118 28.0133 2.77011 29.1467C2.83829 29.9315 3.05052 30.697 3.39617 31.4049C3.71374 32.0592 4.15842 32.6437 4.70428 33.1243C5.24585 33.5945 5.8796 33.9466 6.565 34.1579C7.30771 34.3833 8.08842 34.4558 8.85993 34.3709L9.31892 34.3259C9.51077 34.3066 9.71823 34.2965 9.9413 34.2938C10.1644 34.291 10.392 34.3011 10.627 34.3222C10.8455 34.3389 11.0612 34.3815 11.2696 34.4489C11.4464 34.5059 11.6091 34.5998 11.747 34.7243C11.8741 34.8419 11.9521 35.0032 11.9654 35.1759C11.984 35.2899 11.9772 35.4067 11.9454 35.5177C11.9137 35.6288 11.8578 35.7315 11.7818 35.8185C11.6231 35.9853 11.4302 36.1159 11.2164 36.2013C10.9805 36.2977 10.734 36.3655 10.482 36.4033C10.2243 36.443 10.0043 36.4715 9.82196 36.4886C8.83227 36.5814 7.83484 36.549 6.85325 36.3922C5.87563 36.247 4.92441 35.96 4.02957 35.5404L3.97265 41.5366C4.4041 41.6877 4.89705 41.8456 5.4515 42.0102C6.00596 42.1748 6.58 42.3226 7.17362 42.4536C7.76846 42.5846 8.3526 42.6852 8.92602 42.7556C9.44548 42.8246 9.97089 42.8369 10.493 42.7923C11.6525 42.6873 12.7897 42.4088 13.8665 41.9662C14.8515 41.5658 15.7475 40.9746 16.503 40.2266C17.2406 39.4825 17.7994 38.5803 18.1369 37.5884C18.498 36.5602 18.6143 35.3883 18.4858 34.0725C18.4247 33.3549 18.2415 32.653 17.9442 31.997Z" fill="white"/>
<path d="M43.0525 41.1811C44.7359 41.1929 46.3883 40.7279 47.8186 39.8399C48.4968 39.4161 49.1144 38.9022 49.6545 38.3124C50.1992 37.7203 50.6666 37.0615 51.0452 36.3516C51.4308 35.6258 51.725 34.8549 51.921 34.0567C52.1256 33.2256 52.2277 32.3726 52.2248 31.5167C52.2248 30.1091 52.0005 28.8335 51.552 27.6897C51.1392 26.5885 50.4917 25.5902 49.6546 24.7642C48.8175 23.9382 47.8108 23.3042 46.7042 22.9061C45.5512 22.4716 44.2752 22.2547 42.8762 22.2553C42.0365 22.2503 41.2009 22.3723 40.3977 22.617C39.6284 22.8513 38.8953 23.1911 38.2194 23.6267C37.5488 24.061 36.9383 24.5817 36.4036 25.1753C35.8641 25.7724 35.3998 26.4334 35.0211 27.1435C34.2454 28.6054 33.8403 30.2353 33.8415 31.8903C33.838 32.7274 33.9476 33.5611 34.1674 34.3688C34.3776 35.1444 34.6838 35.8907 35.079 36.5903C35.4674 37.2769 35.9442 37.9096 36.4972 38.4721C37.0498 39.0352 37.6753 39.5218 38.357 39.9189C39.0484 40.3231 39.7889 40.6368 40.5602 40.8524C41.3717 41.0769 42.2105 41.1875 43.0525 41.1811ZM40.126 31.7453C40.124 31.3336 40.1926 30.9247 40.3288 30.5363C40.4566 30.1681 40.6556 29.8288 40.9145 29.5375C41.1714 29.253 41.4838 29.024 41.8325 28.8647C42.2165 28.6951 42.6328 28.6112 43.0525 28.6186C43.4633 28.6108 43.8694 28.7081 44.2321 28.9014C44.5676 29.0828 44.861 29.3331 45.0931 29.6358C45.3306 29.9499 45.5099 30.304 45.6228 30.6813C45.7446 31.0724 45.8065 31.4797 45.8064 31.8894C45.8076 32.3078 45.7394 32.7234 45.6044 33.1195C45.4766 33.5014 45.2803 33.857 45.0252 34.1687C44.7743 34.4728 44.4614 34.7198 44.1072 34.893C43.7232 35.0761 43.3016 35.1669 42.8762 35.1583C42.4582 35.1676 42.0455 35.0625 41.6829 34.8544C41.342 34.654 41.0484 34.3826 40.8218 34.0585C40.5873 33.7233 40.411 33.3509 40.3004 32.957C40.1862 32.5632 40.1274 32.1553 40.126 31.7453Z" fill="white"/>
<path d="M68.4601 32.2512C68.8466 31.7939 69.1628 31.2815 69.3983 30.731C69.6295 30.1758 69.7782 29.5897 69.8398 28.9915C69.9074 28.3072 69.9031 27.6177 69.827 26.9343C69.7046 25.7342 69.3603 24.7073 68.7943 23.8536C68.2463 23.0172 67.5219 22.311 66.6719 21.7845C65.7962 21.25 64.8293 20.8822 63.8198 20.6994C62.758 20.5006 61.673 20.4564 60.5986 20.5682C59.8881 20.641 59.1963 20.7282 58.5231 20.8298C57.8499 20.9314 57.1893 21.0617 56.5412 21.2208C55.8886 21.3798 55.2451 21.5737 54.6134 21.8019C53.9562 22.0397 53.3126 22.3137 52.6857 22.6226C52.7396 23.7321 52.8121 24.8303 52.9033 25.9172C52.9944 27.0041 53.0862 28.1001 53.1786 29.2054C53.3433 31.3993 53.5152 33.5835 53.6945 35.7578C53.8739 37.9322 54.0495 40.1158 54.2215 42.3085L60.4123 41.676L60.0634 35.6605L61.8434 35.4209L64.6836 41.3299L71.0341 39.4022L66.9868 33.6456C67.5256 33.2339 68.0194 32.7665 68.4601 32.2512ZM63.2277 29.321C63.05 29.6837 62.7942 30.0025 62.4786 30.2546C62.1481 30.5173 61.7757 30.7224 61.377 30.8614C60.9736 31.0076 60.5537 31.1038 60.1268 31.1478L59.7816 31.1827L59.4686 25.8034C59.6385 25.7374 59.8127 25.6831 59.99 25.6409C60.1738 25.5981 60.3603 25.5674 60.5481 25.5491C60.9341 25.5005 61.3259 25.5317 61.6993 25.6409C62.0207 25.7389 62.3162 25.9077 62.564 26.1347C62.8107 26.3664 63.0075 26.646 63.1423 26.9563C63.2911 27.3034 63.384 27.6717 63.4177 28.0478C63.4755 28.482 63.4083 28.9237 63.224 29.321H63.2277Z" fill="white"/>
<path d="M65.3592 0.833526C65.728 0.8334 66.0888 0.940914 66.3974 1.14288L77.3213 8.28378C77.6136 8.47495 77.8475 8.7431 77.9971 9.05869C78.1468 9.37427 78.2065 9.72505 78.1696 10.0724C78.1326 10.4197 78.0005 10.7501 77.7879 11.0271C77.5752 11.3042 77.2902 11.5172 76.9642 11.6426L74.9446 12.4192L78.6303 22.8198L79.999 20.1954L78.3026 19.2159C78.0001 19.0412 77.7517 18.7864 77.5848 18.4796C77.4179 18.1727 77.3389 17.8258 77.3566 17.4769C77.3743 17.1281 77.4879 16.7909 77.6849 16.5025C77.8819 16.214 78.1548 15.9856 78.4733 15.8423L89.2916 10.9771C89.5656 10.8544 89.8647 10.7984 90.1645 10.8139C90.4642 10.8293 90.7561 10.9157 91.016 11.0659C91.2758 11.2161 91.4964 11.4258 91.6594 11.6778C91.8224 11.9299 91.9233 12.217 91.9537 12.5156L93.1471 24.3161C93.1828 24.6638 93.1218 25.0145 92.9708 25.3297C92.8198 25.6448 92.5846 25.9121 92.2913 26.1021C91.9979 26.292 91.6578 26.3972 91.3084 26.406C90.9591 26.4148 90.6141 26.327 90.3115 26.1521L88.594 25.1607L82.7878 32.1474L82.7199 41.7154C82.7174 42.217 82.5165 42.6973 82.1609 43.0511C81.8053 43.405 81.3241 43.6036 80.8224 43.6036H73.9624C73.7101 43.6038 73.4603 43.5536 73.2276 43.456C72.9949 43.3584 72.784 43.2154 72.6073 43.0352C72.4306 42.8551 72.2916 42.6415 72.1985 42.407C72.1054 42.1725 72.06 41.9217 72.065 41.6695L72.0787 40.9966C71.926 41.0977 71.7593 41.176 71.584 41.2288L67.4338 42.4865L67.8662 42.5507C68.1228 42.5884 68.369 42.6784 68.5895 42.815C68.81 42.9516 69.0001 43.1321 69.1481 43.3451C69.296 43.5581 69.3988 43.7992 69.4499 44.0536C69.5009 44.3079 69.4993 44.57 69.4451 44.8236C69.3092 45.4662 69.177 46.0959 69.0531 46.7064C68.9218 47.3489 68.7777 48.008 68.6235 48.6607C68.5332 49.0446 68.3256 49.3908 68.0295 49.6513C67.7334 49.9117 67.3634 50.0734 66.9712 50.1139L66.3653 52.8595C66.7034 53.0608 66.9705 53.3623 67.1296 53.7222C67.2886 54.0821 67.3318 54.4825 67.253 54.868C67.0994 55.6208 66.9464 56.3683 66.794 57.1106C66.6425 57.8322 66.4938 58.5721 66.3497 59.3138C66.2656 59.7455 66.0342 60.1347 65.6949 60.4146C65.3557 60.6946 64.9297 60.848 64.4899 60.8486C64.411 60.8487 64.3322 60.8438 64.254 60.8339L56.051 59.8113C55.8852 60.0565 55.6644 60.2595 55.4062 60.4041C55.148 60.5487 54.8595 60.6308 54.5639 60.6439L49.8124 60.8523H49.7289C49.2812 60.8526 48.8478 60.6944 48.5055 60.4057C48.1633 60.1171 47.9342 59.7166 47.859 59.2752C47.781 59.2844 47.7025 59.289 47.624 59.289H45.7596C45.5974 59.5664 45.3672 59.7979 45.0909 59.9619C44.8145 60.1258 44.501 60.2168 44.1798 60.2262L39.3659 60.3722H39.3081C38.8227 60.3719 38.3559 60.1857 38.0037 59.8517L34.1812 60.565C34.0665 60.5861 33.95 60.5969 33.8333 60.5971C33.3728 60.5966 32.9281 60.4287 32.5821 60.1247C32.236 59.8207 32.0123 59.4014 31.9524 58.9448L30.6856 49.4263L30.1844 49.5135L30.6158 57.7312C30.6399 58.1905 30.4963 58.6429 30.2118 59.0042C29.9272 59.3656 29.5212 59.6113 29.0691 59.6957L24.7408 60.5044C24.626 60.5255 24.5096 60.5363 24.3929 60.5365C23.9321 60.5364 23.4871 60.3687 23.1409 60.0647C22.7946 59.7606 22.5708 59.3411 22.5111 58.8842L21.4875 51.0814L20.4034 51.2861C20.1461 51.3345 19.8817 51.3291 19.6266 51.2703C19.3715 51.2116 19.1313 51.1007 18.9211 50.9447C18.711 50.7886 18.5353 50.5908 18.4053 50.3636C18.2752 50.1365 18.1935 49.8848 18.1654 49.6246L17.6394 44.7327C17.5866 44.2414 17.7277 43.7488 18.0325 43.3598C18.3373 42.9708 18.7818 42.7161 19.2715 42.6499L22.5478 42.2065C22.5192 42.1039 22.499 41.9992 22.4872 41.8934L21.2323 29.309L19.132 29.812C19.0373 29.8347 18.9409 29.8497 18.8438 29.857C19.1667 30.2699 19.4414 30.7183 19.6626 31.1936C20.0527 32.0454 20.2948 32.9574 20.3786 33.8906C20.5328 35.4759 20.3786 36.9318 19.9325 38.217C19.5007 39.4771 18.7889 40.623 17.8505 41.5685C16.9177 42.4926 15.8115 43.2232 14.5954 43.7184C13.3438 44.2324 12.0222 44.556 10.6747 44.6786C10.4296 44.7024 10.1726 44.7144 9.911 44.7144C9.50438 44.7131 9.0982 44.6874 8.69468 44.6373C8.06496 44.5602 7.41503 44.4482 6.76694 44.304C6.13079 44.1636 5.50749 44.0039 4.91356 43.8276C4.31963 43.6514 3.8019 43.4852 3.34475 43.3282C2.97129 43.1969 2.64828 42.952 2.42095 42.6278C2.19362 42.3037 2.07337 41.9166 2.07703 41.5208L2.13395 35.5246C2.13682 35.231 2.2077 34.9422 2.34101 34.6806C2.47433 34.4191 2.66645 34.192 2.90229 34.0173C2.41846 33.4879 2.0126 32.8923 1.69699 32.2483C1.24925 31.3336 0.972963 30.3445 0.881833 29.3301C0.742301 27.9063 0.917633 26.5606 1.39131 25.3415C1.84469 24.1731 2.53619 23.1118 3.42186 22.225C4.30294 21.3487 5.33591 20.6399 6.47044 20.1329C7.61543 19.6161 8.83766 19.291 10.0882 19.1709C10.5967 19.1213 11.131 19.0883 11.6744 19.0718C11.8341 19.0672 11.9948 19.0644 12.1527 19.0644C12.5621 19.0644 12.9789 19.081 13.3837 19.1112C13.9462 19.1538 14.506 19.2261 15.0608 19.3279C15.6375 19.4334 16.2043 19.5869 16.7554 19.7869C17.0013 19.8768 17.226 20.0165 17.4154 20.1972C17.6103 20.1032 17.8199 20.0436 18.035 20.021L33.7259 18.3961C33.7911 18.3897 33.8563 18.386 33.9214 18.386C34.3991 18.3864 34.859 18.5669 35.2095 18.8913C35.56 19.2158 35.7753 19.6604 35.8125 20.1366L36.0273 22.9025C36.3958 22.5866 36.785 22.2955 37.1922 22.0313C38.0142 21.5018 38.905 21.0876 39.8396 20.8003C40.8232 20.5006 41.8462 20.3502 42.8744 20.3542C44.4956 20.3542 46.0084 20.614 47.3725 21.1271C48.652 21.5992 49.8247 22.3213 50.8222 23.2513C50.8121 23.0677 50.802 22.8942 50.7938 22.7152C50.7754 22.3453 50.8657 21.9782 51.0536 21.6591C51.2416 21.34 51.5189 21.0829 51.8513 20.9196C52.5398 20.5801 53.2465 20.2786 53.9681 20.0164C54.6633 19.7645 55.3714 19.55 56.0895 19.3738C56.7881 19.203 57.5105 19.0608 58.2357 18.9506C58.9389 18.8441 59.6687 18.7523 60.4049 18.6752C60.8572 18.6292 61.3116 18.6059 61.7663 18.6054C62.5715 18.6078 63.3748 18.6847 64.1658 18.8349C65.1064 19.0102 66.0184 19.3135 66.8766 19.7364L65.2509 16.1563L62.7109 17.1339C62.384 17.26 62.0287 17.2931 61.6841 17.2296C61.3396 17.1661 61.0194 17.0085 60.759 16.7742C60.4986 16.5399 60.3081 16.2381 60.2086 15.9022C60.1092 15.5663 60.1047 15.2094 60.1956 14.8711L63.5233 2.2472C63.6301 1.84186 63.8682 1.48332 64.2004 1.22757C64.5325 0.97182 64.94 0.83326 65.3592 0.833526ZM72.1467 37.6864L72.2642 31.6021L71.5821 30.0975C71.3134 31.3398 70.7431 32.4968 69.9215 33.4665C69.7912 33.6225 69.6532 33.7774 69.5075 33.931L72.1467 37.6864ZM65.3592 8.23513e-06C64.7558 0.000499221 64.1695 0.200544 63.6917 0.56898C63.2138 0.937416 62.8712 1.45355 62.7173 2.03699L59.3924 14.6591C59.2308 15.2689 59.2854 15.9158 59.5468 16.49C59.8082 17.0641 60.2603 17.5301 60.8263 17.8086C60.6573 17.8197 60.4884 17.8334 60.3205 17.8509C59.5714 17.9271 58.8278 18.0207 58.1109 18.1263C57.3609 18.2401 56.6146 18.387 55.8922 18.5632C55.1464 18.7454 54.411 18.9676 53.689 19.2287C52.9379 19.5007 52.2024 19.8139 51.4859 20.1669C50.8711 20.4689 50.3921 20.9908 50.1438 21.6292C49.3733 21.1011 48.5409 20.6695 47.6653 20.3441C46.1311 19.7824 44.5081 19.5025 42.8744 19.5179C41.7628 19.5141 40.657 19.6769 39.5936 20.0008C38.5867 20.3107 37.627 20.7573 36.7415 21.3281L36.6432 20.0705C36.59 19.3847 36.28 18.7442 35.7751 18.277C35.2701 17.8099 34.6075 17.5505 33.9196 17.5507C33.8278 17.5507 33.736 17.5553 33.6378 17.5645L17.9487 19.1856C17.8191 19.1994 17.6905 19.2224 17.5641 19.2544C17.3993 19.1499 17.2236 19.0637 17.04 18.9974C16.4455 18.7825 15.8342 18.6176 15.2123 18.5045C14.6282 18.3981 14.039 18.3221 13.447 18.2768C13.0183 18.2447 12.5823 18.2282 12.1527 18.2282C11.9865 18.2282 11.8176 18.2282 11.6496 18.2355C11.0869 18.252 10.5343 18.2869 10.0074 18.3383C8.6662 18.4669 7.35529 18.8152 6.12712 19.3692C4.90039 19.9177 3.78346 20.6844 2.83069 21.632C1.86354 22.6014 1.10831 23.7611 0.612867 25.0377C0.0914596 26.3797 -0.101314 27.8512 0.0501509 29.4109C0.150954 30.5277 0.455548 31.6167 0.948845 32.6238C1.1861 33.1018 1.46697 33.5569 1.78787 33.9833C1.47579 34.4342 1.30542 34.968 1.29859 35.5163L1.2426 41.5125C1.23708 42.0824 1.40998 42.6397 1.73707 43.1064C2.06415 43.573 2.52904 43.9257 3.0666 44.1149C3.5366 44.2802 4.07637 44.4546 4.67672 44.6318C5.27708 44.8089 5.93159 44.9787 6.5861 45.1238C7.26448 45.2734 7.94103 45.39 8.59738 45.4699C9.03442 45.524 9.4743 45.5519 9.91467 45.5534C10.2029 45.5534 10.4875 45.5396 10.7592 45.5139C12.1893 45.3826 13.5918 45.0385 14.9204 44.4931C15.6795 44.1786 16.4017 43.7815 17.0739 43.309C16.8422 43.7773 16.7498 44.3024 16.8077 44.8218L17.3328 49.7136C17.3734 50.0884 17.4911 50.4507 17.6784 50.7779C17.8657 51.105 18.1186 51.3899 18.4213 51.6146C18.7239 51.8393 19.0698 51.9991 19.4371 52.0838C19.8044 52.1685 20.1853 52.1763 20.5558 52.1068L20.7724 52.0664L21.6812 58.9962C21.7299 59.3643 21.853 59.7187 22.0431 60.0378C22.2332 60.3568 22.4863 60.6338 22.7869 60.8519C23.0875 61.0699 23.4293 61.2245 23.7916 61.3062C24.1539 61.3879 24.529 61.3949 24.8941 61.3269L29.2224 60.5182C29.6245 60.4419 30.0044 60.2765 30.3342 60.0341C30.664 59.7917 30.9353 59.4784 31.1281 59.1173C31.1838 59.4742 31.3094 59.8166 31.4976 60.1248C31.6859 60.4331 31.933 60.7012 32.225 60.9138C32.6908 61.253 33.2525 61.435 33.8287 61.4334C33.9965 61.4333 34.164 61.4179 34.329 61.3875L37.7769 60.7449C38.2286 61.0516 38.7621 61.2153 39.3081 61.2149H39.3926L44.2055 61.0689C44.5827 61.058 44.9535 60.9687 45.2943 60.8065C45.635 60.6443 45.9383 60.413 46.1846 60.1271H47.2586C47.4808 60.5941 47.8308 60.9886 48.268 61.2648C48.7052 61.541 49.2117 61.6876 49.7289 61.6877H49.8473L54.6006 61.4793C55.2747 61.4479 55.9137 61.1692 56.3952 60.6962L64.1447 61.6555C64.2568 61.6694 64.3696 61.6765 64.4825 61.6766C65.116 61.6754 65.7295 61.4544 66.2182 61.0513C66.7069 60.6481 67.0405 60.0879 67.1621 59.4662C67.3053 58.7318 67.454 57.9974 67.6036 57.2786C67.7606 56.5259 67.9167 55.7704 68.0626 55.0305C68.136 54.6671 68.1348 54.2926 68.059 53.9296C67.9833 53.5667 67.8346 53.2229 67.622 52.9192C67.5231 52.777 67.4106 52.6448 67.286 52.5245L67.6642 50.8088C68.1 50.658 68.4906 50.3995 68.7997 50.0574C69.1088 49.7152 69.3264 49.3005 69.4322 48.8517C69.5883 48.1889 69.7342 47.5224 69.8664 46.8716C69.9894 46.2657 70.1216 45.6351 70.2575 44.9962C70.3349 44.6309 70.3368 44.2536 70.2631 43.8875C70.1894 43.5214 70.0416 43.1743 69.8288 42.8674C69.7829 42.8013 69.737 42.7371 69.6828 42.6756L71.27 42.1945C71.3842 42.8241 71.7159 43.3936 72.2071 43.8037C72.6983 44.2137 73.318 44.4382 73.9578 44.4381H80.8178C81.5386 44.4362 82.2296 44.1502 82.741 43.6423C83.2524 43.1343 83.5429 42.4453 83.5497 41.7245L83.6158 32.453L88.7886 26.2384L89.8966 26.8809C90.3326 27.1341 90.8303 27.2616 91.3343 27.2494C91.8384 27.2372 92.3293 27.0857 92.7526 26.8117C93.1759 26.5377 93.5151 26.1519 93.7326 25.697C93.9502 25.2422 94.0376 24.7359 93.9852 24.2344L92.7918 12.4339C92.7483 12.003 92.603 11.5886 92.3677 11.2249C92.1325 10.8612 91.8142 10.5586 91.439 10.3422C91.0639 10.1257 90.6426 10.0016 90.21 9.97997C89.7774 9.95837 89.3459 10.0399 88.951 10.2179L78.1328 15.0832C77.7151 15.2701 77.3512 15.5589 77.0743 15.9231L76.0077 12.9067L77.268 12.422C77.7375 12.2412 78.1479 11.9344 78.4541 11.5353C78.7603 11.1361 78.9505 10.6603 79.0035 10.16C79.0566 9.65977 78.9705 9.15458 78.7549 8.70011C78.5392 8.24564 78.2023 7.85952 77.7812 7.58428L66.8573 0.443388C66.4118 0.152807 65.8911 -0.00129796 65.3592 8.23513e-06ZM20.2042 30.4133L20.4961 30.3435L20.5824 31.2138C20.531 31.0871 20.4768 30.9632 20.4199 30.8411C20.352 30.696 20.2801 30.5534 20.2042 30.4133ZM18.6528 41.9375C19.574 40.9462 20.2772 39.7729 20.7174 38.4933C20.9082 37.9463 21.0489 37.3831 21.1378 36.8106L21.6041 41.4923L19.155 41.8228C18.9844 41.8459 18.8163 41.8846 18.6528 41.9384V41.9375Z" fill="white"/>
</svg>
